Coordinates
version=1
nRows=26
nColumns=24
inDegrees=yes

Units are S.I. units (second, meters, Newtons, ...)
Angles are in degrees.

endheader
time	pelvis_tilt	pelvis_list	pelvis_rotation	pelvis_tx	pelvis_ty	pelvis_tz	hip_flexion_r	hip_adduction_r	hip_rotation_r	knee_angle_r	ankle_angle_r	subtalar_angle_r	mtp_angle_r	hip_flexion_l	hip_adduction_l	hip_rotation_l	knee_angle_l	ankle_angle_l	subtalar_angle_l	mtp_angle_l	lumbar_extension	lumbar_bending	lumbar_rotation
      1.17000000	     26.76769404	     -8.03560353	     -0.85871253	     -0.69737623	      0.89118077	      0.00343499	    -47.33936635	      8.30040826	     21.45056774	      2.69745529	     12.12314212	      0.83002834	     25.30516827	     -4.27679998	     -5.30869650	     15.50969931	     -6.31602288	     -5.38754189	    -37.39646215	     33.00619939	    -35.29161400	      7.88372361	      7.85586125
      1.17500000	     26.64999672	     -7.76966286	     -0.70864466	     -0.69079311	      0.89044100	      0.00303623	    -47.47814003	      8.25875983	     20.61871356	      2.30384481	     12.33363865	      1.55694659	     25.50990130	     -4.13972194	     -4.89123241	     15.88006063	     -6.86957372	     -5.60535064	    -37.29500977	     33.06520707	    -34.98509194	      7.65378092	      7.51630708
      1.18000000	     26.56029136	     -7.49128049	     -0.55309679	     -0.68419293	      0.88979502	      0.00263698	    -47.64257972	      8.20535802	     19.81102067	      1.90891698	     12.45990644	      2.21664718	     25.74439083	     -4.04069399	     -4.45078769	     16.27723497	     -7.47950805	     -5.84693851	    -37.20688351	     33.14801003	    -34.70865723	      7.40602146	      7.17045657
      1.18500000	     26.47921194	     -7.18351342	     -0.41906748	     -0.67754948	      0.88924758	      0.00227660	    -47.80679598	      8.11003261	     19.03022453	      1.50520167	     12.55582356	      2.84804599	     26.02787026	     -3.97519113	     -3.97319830	     16.65267165	     -8.10884164	     -6.13964475	    -37.09182942	     33.24787248	    -34.43962044	      7.11166463	      6.81977697
      1.19000000	     26.40234412	     -6.86295331	     -0.30882101	     -0.67085653	      0.88880318	      0.00195873	    -47.94922145	      7.99080740	     18.23639353	      1.04553222	     12.61715458	      3.52917018	     26.39700635	     -3.94375346	     -3.47997319	     17.01448642	     -8.73610119	     -6.46755130	    -36.97351816	     33.36553139	    -34.17416378	      6.78699767	      6.50574338
      1.19500000	     26.30720001	     -6.52761149	     -0.24250703	     -0.66410403	      0.88846023	      0.00170598	    -48.04766302	      7.82865407	     17.45956478	      0.54328732	     12.65776103	      4.27080491	     26.96167693	     -3.93471778	     -2.97238041	     17.35049193	     -9.32722111	     -6.85791794	    -36.84178326	     33.53148792	    -33.88977292	      6.42256099	      6.24106859
      1.20000000	     26.23479529	     -6.19103529	     -0.15014215	     -0.65735776	      0.88823327	      0.00142362	    -48.15477767	      7.67939245	     16.69905352	      0.02568979	     12.56867427	      4.92085077	     27.61302290	     -3.95271169	     -2.46243930	     17.72171516	     -9.94141151	     -7.21312065	    -36.70169010	     33.70529825	    -33.63292233	      6.06466429	      5.95184854
      1.20500000	     26.21322322	     -5.85821465	     -0.03554175	     -0.65064726	      0.88815358	      0.00109850	    -48.30409160	      7.53865826	     15.98324886	     -0.49482130	     12.36360211	      5.46740759	     28.18103613	     -4.02997513	     -1.95470689	     18.11832248	    -10.57328025	     -7.50998878	    -36.54741137	     33.83401019	    -33.43773092	      5.71869593	      5.64508547
      1.21000000	     26.13170041	     -5.50393724	      0.00179407	     -0.64383034	      0.88816652	      0.00091623	    -48.34253866	      7.33247416	     15.24852598	     -1.11141422	     12.21256353	      6.25396291	     29.17853682	     -4.10938275	     -1.43810059	     18.44083528	    -11.10295005	     -7.92604980	    -36.36388369	     33.99522685	    -33.17600176	      5.30688583	      5.42564087
      1.21500000	     26.10518666	     -5.17200113	      0.08911565	     -0.63704146	      0.88832258	      0.00064614	    -48.41154876	      7.17181383	     14.48051624	     -1.76320892	     11.87789062	      6.96147353	     30.18809953	     -4.24870180	     -0.94478583	     18.82731913	    -11.65297438	     -8.20507982	    -36.21848261	     34.12190443	    -32.97799095	      4.94212780	      5.16056741
      1.22000000	     26.07992260	     -4.81983352	      0.16895108	     -0.63025088	      0.88860046	      0.00041578	    -48.52250991	      6.97942107	     13.95576168	     -2.30500619	     11.39155047	      7.21380547	     30.50101652	     -4.42594226	     -0.44339223	     19.20662898	    -12.13844018	     -8.51324999	    -35.98224714	     34.15819377	    -32.78513097	      4.54775371	      4.92607268
      1.22500000	     26.04644693	     -4.52454895	      0.22196040	     -0.62344275	      0.88898939	      0.00019319	    -48.44573409	      6.81983311	     13.06275497	     -3.22079364	     11.10494566	      8.48884162	     31.70823037	     -4.61087290	     -0.00558664	     19.48272498	    -12.61625330	     -8.79134652	    -35.86081376	     34.18500988	    -32.59235883	      4.20108751	      4.74271857
      1.23000000	     26.05967390	     -4.18258176	      0.27050358	     -0.61658559	      0.88952697	      0.00001815	    -48.50471854	      6.60655901	     12.40897422	     -3.89483157	     10.24430105	      8.71691627	     36.23544629	     -4.91878449	      0.46652899	     19.82058249	    -12.96259849	     -9.09439385	    -35.90942949	     34.07832139	    -32.44468433	      3.79700476	      4.54555642
      1.23500000	     26.02707167	     -3.93108708	      0.37703315	     -0.60978818	      0.89011013	     -0.00027617	    -48.39593368	      6.50221676	     11.64199599	     -4.82267082	      9.64902225	      9.70533773	     36.56900146	     -5.16632616	      0.83000482	     20.20111421	    -13.33441125	     -9.12811523	    -35.67220960	     34.08086023	    -32.26075027	      3.52145267	      4.35773739
      1.24000000	     26.03313886	     -3.67655587	      0.44863051	     -0.60300640	      0.89083179	     -0.00049334	    -48.27009312	      6.36011025	     10.80988971	     -5.84750163	      9.05628933	     10.90486953	     37.15893123	     -5.47857946	      1.18485953	     20.45077841	    -13.66831467	     -9.28123842	    -35.51398483	     34.00984026	    -32.12436894	      3.21934885	      4.21473278
      1.24500000	     26.03953286	     -3.43621668	      0.53060428	     -0.59619458	      0.89163921	     -0.00073103	    -48.10337786	      6.22407772	      9.95689900	     -6.92858880	      8.32996468	     12.10774047	     37.85124662	     -5.84837961	      1.50746707	     20.73257502	    -13.89512627	     -9.31567530	    -35.42542884	     33.90639603	    -31.98883035	      2.93935964	      4.04290645
      1.25000000	     26.04312642	     -3.22149730	      0.61626737	     -0.58941402	      0.89251968	     -0.00098590	    -47.86964485	      6.09532296	      9.04063696	     -8.11072665	      7.52319340	     13.43060154	     38.64920386	     -6.23184739	      1.79351886	     20.99769298	    -14.09491424	     -9.32248452	    -35.34332757	     33.76959933	    -31.85668359	      2.68827668	      3.91095665
      1.25500000	     26.00836060	     -3.07275456	      0.68878486	     -0.58267115	      0.89344867	     -0.00124849	    -47.55540391	      5.99480858	      8.22186023	     -9.29798958	      6.31288182	     14.41646515	     42.72896043	     -6.60375833	      2.00568020	     21.26538589	    -14.24217105	     -9.32168120	    -35.41153983	     32.70874016	    -31.69237942	      2.50447045	      3.85249953
      1.26000000	     26.05585694	     -2.87159694	      0.77209545	     -0.57594659	      0.89450329	     -0.00148541	    -47.25364283	      5.83867448	      7.18391911	    -10.65201516	      5.36314068	     15.88281590	     43.08485911	     -7.10850199	      2.23904256	     21.47970148	    -14.29359491	     -9.15666747	    -35.14355789	     32.65344550	    -31.61820627	      2.26585595	      3.73818501
      1.26500000	     26.05235663	     -2.73126250	      0.84591623	     -0.56928589	      0.89555363	     -0.00174650	    -46.80243443	      5.69689102	      6.11248144	    -12.16037564	      4.32179771	     17.49076349	     43.61978583	     -7.55237906	      2.40739184	     21.60857995	    -14.35292914	     -9.04110535	    -35.02136285	     32.51357320	    -31.50218610	      2.09228055	      3.63846929
      1.27000000	     26.05146259	     -2.60468622	      0.91026783	     -0.56266855	      0.89664255	     -0.00202337	    -46.29775029	      5.52870247	      5.00320365	    -13.74291584	      3.15550643	     19.11032876	     44.26443164	     -8.04215008	      2.55031916	     21.75780565	    -14.32325195	     -8.88306905	    -34.95526786	     32.32274734	    -31.39405188	      1.93410098	      3.57078106
      1.27500000	     26.04760390	     -2.49374472	      0.96605887	     -0.55612600	      0.89775304	     -0.00230355	    -45.72590932	      5.33542944	      3.85849873	    -15.41358128	      1.88150393	     20.71461628	     44.93894627	     -8.55399524	      2.66722847	     21.89850616	    -14.23416378	     -8.70121761	    -34.91480717	     32.10766532	    -31.29450554	      1.79055137	      3.51768398
      1.28000000	     26.01673679	     -2.42418088	      1.03476848	     -0.54967034	      0.89885859	     -0.00263860	    -45.07932967	      5.15942860	      2.74447394	    -17.10028015	      0.30120507	     21.92170008	     48.45668217	     -9.06578894	      2.73695598	     22.10700067	    -14.08095884	     -8.54057935	    -35.00735607	     30.45031999	    -31.17464228	      1.70252835	      3.48254892
      1.28500000	     26.01619064	     -2.33221397	      1.04636561	     -0.54326406	      0.90000601	     -0.00289268	    -44.39660494	      4.88325673	      1.56732767	    -18.92319125	     -1.11034906	     23.40463488	     48.68073617	     -9.62402769	      2.81378885	     22.14460663	    -13.88924739	     -8.25920264	    -34.77746544	     30.35979554	    -31.09473835	      1.56691433	      3.45413487
      1.29000000	     26.00298929	     -2.29038515	      1.08872762	     -0.53701753	      0.90112696	     -0.00324555	    -43.64573369	      4.63662989	      0.41558040	    -20.79469659	     -2.65119892	     24.68975812	     48.89811595	    -10.16912123	      2.83565194	     22.23958530	    -13.67233119	     -8.06417690	    -34.71866948	     30.24756749	    -31.02118420	      1.50709291	      3.43695508
      1.29500000	     25.96669221	     -2.23189058	      1.08449008	     -0.53081841	      0.90219989	     -0.00356129	    -42.81537296	      4.30838386	     -0.74385793	    -22.74642421	     -4.13486317	     25.82840595	     49.13201472	    -10.71465708	      2.87633741	     22.28097923	    -13.39572067	     -7.89920135	    -34.73460602	     30.10130050	    -30.92727468	      1.41319446	      3.44257432
